<?xml version="1.0" encoding="utf-8"?>
<svg width="800px" height="800px" viewBox="0 0 512 512" xmlns="http://www.w3.org/2000/svg">
  <title>Shop06</title>
  <g id="Shop_06" data-name="Shop 06">
    <g id="Shop_06-2" data-name="Shop 06">
      <path d="M419.0233,232.0789,400.2466,152.365V98.4685a9.4477,9.4477,0,0,0-9.45-9.45H121.2007a9.4517,9.4517,0,0,0-9.45,9.45v53.2476L92.97,232.0942a9.3172,9.3172,0,0,0-.2493,2.1519v31.5a40.269,40.269,0,0,0,24.7878,37.1259V413.5315a9.4517,9.4517,0,0,0,9.45,9.45H385.0411a9.4477,9.4477,0,0,0,9.45-9.45V302.872a40.2649,40.2649,0,0,0,24.7878-37.1259v-31.5A9.2844,9.2844,0,0,0,419.0233,232.0789Zm-33.9849-7.2828H114.0844l14.6133-62.54h254.466l14.7294,62.54ZM232.2508,404.0815V316.6033h-72.828v87.4782H136.4053V305.7637a40.1418,40.1418,0,0,0,27.2979-14.1462,40.1646,40.1646,0,0,0,61.5321,0,40.1618,40.1618,0,0,0,61.5294,0,40.1646,40.1646,0,0,0,61.5321,0,40.1349,40.1349,0,0,0,27.2979,14.1462v98.3178Z"/>
      <path d="M351.4216,314.4388h-89.775a9.4494,9.4494,0,0,0-9.4473,9.45v48.63a9.4488,9.4488,0,0,0,9.4473,9.45h89.775a9.4471,9.4471,0,0,0,9.45-9.45v-48.63A9.4454,9.4454,0,0,0,351.4216,314.4388Zm-9.45,48.63h-70.875v-29.73h70.875Z"/>
    </g>
  </g>
</svg>